<svg viewBox="0 0 1440 2000" preserveAspectRatio="xMidYMid slice" xmlns="http://www.w3.org/2000/svg"><defs><filter id="bsh" x="-20%" y="-20%" width="140%" height="140%"><feDropShadow dx="0" dy="7" stdDeviation="12" flood-color="#1a0f08" flood-opacity="0.11"/></filter></defs><g filter="url(#bsh)"><circle cx="-30" cy="150" r="92" fill="none" stroke="#4a7c59" stroke-width="17" stroke-opacity="0.84"/><circle cx="1470" cy="120" r="130" fill="none" stroke="#ff6b6b" stroke-width="20" stroke-opacity="0.84"/><circle cx="1490" cy="1040" r="58" fill="none" stroke="#3d5a80" stroke-width="12" stroke-opacity="0.84"/><circle cx="1490" cy="1440" r="77" fill="none" stroke="#ff6b6b" stroke-width="14" stroke-opacity="0.84"/><circle cx="241" cy="1025" r="46" fill="#ff6b6b" fill-opacity="0.9"/><circle cx="907" cy="1690" r="122" fill="none" stroke="#4a7c59" stroke-width="20" stroke-opacity="0.84"/><circle cx="630" cy="1712" r="50" fill="#ff6b6b" fill-opacity="0.9"/><circle cx="967" cy="911" r="80" fill="none" stroke="#e5a93c" stroke-width="15" stroke-opacity="0.84"/><circle cx="1171" cy="330" r="50" fill="#3d5a80" fill-opacity="0.9"/><circle cx="422" cy="1801" r="92" fill="none" stroke="#c84b31" stroke-width="17" stroke-opacity="0.84"/><circle cx="-16" cy="727" r="46" fill="#4a7c59" fill-opacity="0.9"/><circle cx="649" cy="1955" r="56" fill="#c84b31" fill-opacity="0.9"/><circle cx="201" cy="1268" r="50" fill="#e5a93c" fill-opacity="0.9"/><circle cx="1272" cy="1151" r="46" fill="#e5a93c" fill-opacity="0.9"/><circle cx="550" cy="1489" r="46" fill="#c84b31" fill-opacity="0.9"/><circle cx="656" cy="922" r="44" fill="none" stroke="#3d5a80" stroke-width="12" stroke-opacity="0.84"/><circle cx="310" cy="1413" r="56" fill="#e5a93c" fill-opacity="0.9"/><path d="M -170.0 540.0 L -158.6 528.7 L -147.2 517.4 L -135.8 506.1 L -124.6 494.6 L -113.6 483.0 L -102.8 471.3 L -92.1 459.3 L -81.7 447.2 L -71.6 434.8 L -61.7 422.3 L -52.0 409.5 L -42.5 396.6 L -33.3 383.5 L -24.1 370.2 L -15.1 356.8 L -6.2 343.4 L 2.7 329.9 L 11.6 316.4 L 20.5 303.0 L 29.6 289.6 L 38.9 276.3 L 48.3 263.2 L 57.9 250.3 L 67.8 237.6 L 78.0 225.1 L 88.4 212.8 L 99.2 200.7 L 110.1 188.9 L 121.4 177.2 L 132.8 165.8 L 144.5 154.5 L 156.3 143.3 L 168.2 132.2 L 180.1 121.2 L 192.1 110.2 L 204.1 99.2 L 216.0 88.1 L 227.8 76.9 L 239.4 65.5 L 250.9 54.0 L 262.1 42.3 L 273.2 30.4 L 284.0 18.3 L 294.5 6.0 L 304.8 -6.6 L 315.0 -19.3 L 324.9 -32.2 L 334.7 -45.3 L 344.3 -58.5 L 353.9 -71.8 L 363.4 -85.2 L 373.0 -98.5 L 382.6 -111.8 L 392.3 -125.0 L 402.2 -138.1 L 412.2 -151.1 L 422.5 -163.8 L 433.0 -176.4" fill="none" stroke="#3d5a80" stroke-width="9" stroke-linecap="round" stroke-linejoin="round" stroke-opacity="0.9"/><path d="M -148.2 557.6 L -136.8 546.3 L -125.4 535.1 L -114.1 523.7 L -102.9 512.3 L -91.9 500.7 L -81.1 489.0 L -70.5 477.1 L -60.1 464.9 L -50.0 452.6 L -40.1 440.1 L -30.4 427.4 L -21.0 414.4 L -11.7 401.3 L -2.6 388.1 L 6.4 374.8 L 15.3 361.3 L 24.1 347.9 L 33.0 334.4 L 42.0 321.0 L 51.0 307.6 L 60.3 294.4 L 69.7 281.3 L 79.3 268.4 L 89.2 255.7 L 99.3 243.2 L 109.7 231.0 L 120.4 218.9 L 131.4 207.1 L 142.6 195.5 L 154.0 184.0 L 165.7 172.8 L 177.4 161.6 L 189.3 150.6 L 201.3 139.6 L 213.3 128.6 L 225.2 117.6 L 237.1 106.5 L 248.9 95.3 L 260.5 84.0 L 271.9 72.5 L 283.2 60.9 L 294.2 49.0 L 304.9 36.9 L 315.5 24.6 L 325.8 12.0 L 335.9 -0.7 L 345.8 -13.6 L 355.5 -26.7 L 365.2 -39.8 L 374.7 -53.1 L 384.2 -66.4 L 393.8 -79.7 L 403.4 -93.0 L 413.1 -106.2 L 422.9 -119.3 L 432.9 -132.2 L 443.2 -145.0 L 453.6 -157.5" fill="none" stroke="#4a7c59" stroke-width="9" stroke-linecap="round" stroke-linejoin="round" stroke-opacity="0.9"/><path d="M -126.4 575.1 L -115.0 563.9 L -103.6 552.7 L -92.4 541.4 L -81.2 530.0 L -70.2 518.4 L -59.4 506.7 L -48.8 494.8 L -38.4 482.7 L -28.3 470.4 L -18.5 457.9 L -8.8 445.2 L 0.6 432.3 L 9.8 419.2 L 18.9 406.0 L 27.9 392.7 L 36.8 379.3 L 45.6 365.8 L 54.5 352.4 L 63.4 339.0 L 72.5 325.7 L 81.7 312.5 L 91.0 299.4 L 100.7 286.5 L 110.5 273.8 L 120.6 261.4 L 131.0 249.1 L 141.7 237.1 L 152.7 225.3 L 163.8 213.7 L 175.3 202.3 L 186.9 191.1 L 198.6 179.9 L 210.5 168.9 L 222.4 157.9 L 234.4 147.0 L 246.3 136.0 L 258.2 124.9 L 269.9 113.8 L 281.5 102.5 L 292.9 91.0 L 304.2 79.4 L 315.1 67.5 L 325.9 55.4 L 336.4 43.2 L 346.7 30.6 L 356.8 17.9 L 366.7 5.1 L 376.4 -8.0 L 386.0 -21.1 L 395.5 -34.4 L 405.0 -47.7 L 414.6 -61.0 L 424.1 -74.2 L 433.8 -87.4 L 443.6 -100.5 L 453.6 -113.4 L 463.9 -126.1 L 474.3 -138.6" fill="none" stroke="#ff6b6b" stroke-width="9" stroke-linecap="round" stroke-linejoin="round" stroke-opacity="0.9"/><path d="M 1610.0 540.0 L 1601.4 526.4 L 1592.8 512.9 L 1584.0 499.5 L 1575.1 486.2 L 1565.9 473.0 L 1556.6 460.0 L 1547.0 447.2 L 1537.1 434.6 L 1527.0 422.2 L 1516.5 410.0 L 1505.8 398.1 L 1494.9 386.3 L 1483.7 374.8 L 1472.4 363.4 L 1460.8 352.1 L 1449.2 340.9 L 1437.5 329.8 L 1425.8 318.6 L 1414.1 307.5 L 1402.5 296.2 L 1391.0 284.9 L 1379.7 273.4 L 1368.5 261.8 L 1357.6 250.0 L 1346.9 238.0 L 1336.4 225.7 L 1326.2 213.3 L 1316.2 200.6 L 1306.4 187.8 L 1296.8 174.7 L 1287.3 161.6 L 1278.0 148.3 L 1268.7 134.9 L 1259.5 121.5 L 1250.3 108.1 L 1241.0 94.7 L 1231.6 81.4 L 1222.1 68.2 L 1212.3 55.2 L 1202.4 42.4 L 1192.2 29.7 L 1181.7 17.3 L 1171.0 5.1 L 1160.0 -6.9 L 1148.7 -18.6 L 1137.2 -30.2 L 1125.5 -41.5 L 1113.6 -52.7 L 1101.5 -63.7 L 1089.3 -74.7 L 1077.0 -85.6 L 1064.8 -96.5 L 1052.5 -107.4 L 1040.3 -118.3 L 1028.2 -129.4 L 1016.3 -140.6 L 1004.5 -152.0 L 993.0 -163.6" fill="none" stroke="#c84b31" stroke-width="9" stroke-linecap="round" stroke-linejoin="round" stroke-opacity="0.9"/><path d="M 1588.2 557.6 L 1579.6 544.0 L 1571.0 530.5 L 1562.2 517.1 L 1553.3 503.8 L 1544.2 490.7 L 1534.9 477.7 L 1525.3 464.9 L 1515.5 452.3 L 1505.3 440.0 L 1494.9 427.8 L 1484.3 415.9 L 1473.3 404.2 L 1462.2 392.7 L 1450.8 381.3 L 1439.3 370.0 L 1427.7 358.8 L 1416.0 347.7 L 1404.3 336.6 L 1392.7 325.5 L 1381.1 314.3 L 1369.6 303.0 L 1358.3 291.5 L 1347.1 279.9 L 1336.2 268.1 L 1325.5 256.1 L 1315.1 243.9 L 1304.9 231.5 L 1294.9 218.8 L 1285.1 206.0 L 1275.5 193.0 L 1266.1 179.9 L 1256.8 166.6 L 1247.6 153.3 L 1238.4 139.9 L 1229.2 126.5 L 1219.9 113.1 L 1210.5 99.9 L 1201.0 86.7 L 1191.3 73.7 L 1181.3 60.9 L 1171.2 48.2 L 1160.7 35.8 L 1150.0 23.7 L 1139.0 11.7 L 1127.8 -0.0 L 1116.3 -11.5 L 1104.6 -22.9 L 1092.7 -34.0 L 1080.6 -45.0 L 1068.5 -56.0 L 1056.2 -66.8 L 1044.0 -77.7 L 1031.7 -88.6 L 1019.6 -99.5 L 1007.5 -110.6 L 995.6 -121.8 L 983.9 -133.1 L 972.3 -144.7" fill="none" stroke="#e5a93c" stroke-width="9" stroke-linecap="round" stroke-linejoin="round" stroke-opacity="0.9"/><path d="M 1566.4 575.1 L 1557.8 561.6 L 1549.2 548.1 L 1540.5 534.8 L 1531.6 521.5 L 1522.5 508.3 L 1513.2 495.4 L 1503.7 482.6 L 1493.8 470.1 L 1483.7 457.8 L 1473.3 445.6 L 1462.7 433.7 L 1451.8 422.0 L 1440.6 410.5 L 1429.3 399.2 L 1417.8 387.9 L 1406.2 376.8 L 1394.6 365.7 L 1382.9 354.6 L 1371.2 343.5 L 1359.7 332.3 L 1348.2 321.0 L 1336.9 309.6 L 1325.8 298.0 L 1314.9 286.2 L 1304.2 274.3 L 1293.8 262.1 L 1283.6 249.7 L 1273.6 237.1 L 1263.9 224.3 L 1254.3 211.3 L 1244.9 198.2 L 1235.6 184.9 L 1226.4 171.6 L 1217.2 158.2 L 1208.1 144.9 L 1198.8 131.5 L 1189.4 118.3 L 1179.9 105.2 L 1170.2 92.2 L 1160.3 79.4 L 1150.2 66.8 L 1139.7 54.4 L 1129.1 42.2 L 1118.1 30.3 L 1106.9 18.6 L 1095.4 7.1 L 1083.7 -4.2 L 1071.8 -15.3 L 1059.8 -26.4 L 1047.7 -37.3 L 1035.4 -48.1 L 1023.2 -58.9 L 1011.0 -69.8 L 998.8 -80.7 L 986.8 -91.8 L 974.9 -102.9 L 963.2 -114.3 L 951.7 -125.8" fill="none" stroke="#4a7c59" stroke-width="9" stroke-linecap="round" stroke-linejoin="round" stroke-opacity="0.9"/><path d="M -170.0 1500.0 L -161.5 1513.0 L -153.0 1526.0 L -144.3 1538.9 L -135.5 1551.7 L -126.4 1564.3 L -117.1 1576.7 L -107.5 1588.8 L -97.7 1600.8 L -87.5 1612.5 L -77.1 1623.9 L -66.4 1635.1 L -55.4 1646.1 L -44.1 1656.8 L -32.7 1667.4 L -21.0 1677.9 L -9.3 1688.2 L 2.5 1698.5 L 14.3 1708.8 L 26.1 1719.1 L 37.8 1729.5 L 49.4 1740.0 L 60.8 1750.7 L 72.0 1761.6 L 83.0 1772.6 L 93.7 1783.9 L 104.2 1795.5 L 114.4 1807.2 L 124.3 1819.3 L 134.1 1831.5 L 143.6 1843.9 L 153.0 1856.6 L 162.2 1869.3 L 171.4 1882.1 L 180.5 1895.0 L 189.6 1907.9 L 198.8 1920.8 L 208.1 1933.5 L 217.6 1946.1 L 227.3 1958.6 L 237.2 1970.8 L 247.3 1982.9 L 257.8 1994.6 L 268.5 2006.2 L 279.5 2017.4 L 290.8 2028.4 L 302.4 2039.2 L 314.1 2049.7 L 326.1 2060.1 L 338.3 2070.3 L 350.6 2080.4 L 362.9 2090.4 L 375.3 2100.5 L 387.7 2110.5 L 399.9 2120.6 L 412.1 2130.9 L 424.1 2141.3 L 435.9 2151.9 L 447.5 2162.7" fill="none" stroke="#e5a93c" stroke-width="9" stroke-linecap="round" stroke-linejoin="round" stroke-opacity="0.9"/><path d="M -191.3 1518.2 L -182.8 1531.2 L -174.2 1544.2 L -165.5 1557.1 L -156.7 1569.9 L -147.6 1582.6 L -138.3 1595.0 L -128.7 1607.2 L -118.8 1619.1 L -108.7 1630.9 L -98.2 1642.3 L -87.4 1653.5 L -76.4 1664.5 L -65.1 1675.3 L -53.7 1685.9 L -42.0 1696.4 L -30.3 1706.8 L -18.5 1717.1 L -6.6 1727.4 L 5.2 1737.7 L 16.9 1748.2 L 28.5 1758.7 L 39.9 1769.4 L 51.2 1780.3 L 62.2 1791.4 L 72.9 1802.7 L 83.4 1814.2 L 93.6 1826.0 L 103.6 1838.1 L 113.4 1850.4 L 122.9 1862.8 L 132.3 1875.5 L 141.6 1888.2 L 150.7 1901.1 L 159.9 1914.0 L 169.0 1926.9 L 178.3 1939.8 L 187.6 1952.5 L 197.1 1965.2 L 206.8 1977.7 L 216.7 1989.9 L 226.9 2002.0 L 237.3 2013.8 L 248.1 2025.3 L 259.1 2036.6 L 270.4 2047.6 L 282.0 2058.4 L 293.8 2069.0 L 305.8 2079.4 L 318.0 2089.6 L 330.3 2099.7 L 342.7 2109.8 L 355.1 2119.8 L 367.5 2129.9 L 379.8 2140.1 L 391.9 2150.3 L 404.0 2160.7 L 415.8 2171.4 L 427.4 2182.2" fill="none" stroke="#ff6b6b" stroke-width="9" stroke-linecap="round" stroke-linejoin="round" stroke-opacity="0.9"/><path d="M -212.6 1536.3 L -204.1 1549.4 L -195.5 1562.5 L -186.8 1575.4 L -177.9 1588.2 L -168.8 1600.8 L -159.5 1613.3 L -149.9 1625.5 L -140.0 1637.5 L -129.8 1649.2 L -119.3 1660.7 L -108.5 1672.0 L -97.5 1683.0 L -86.2 1693.8 L -74.7 1704.4 L -63.0 1714.9 L -51.3 1725.3 L -39.4 1735.7 L -27.6 1746.0 L -15.7 1756.4 L -4.0 1766.8 L 7.6 1777.4 L 19.1 1788.1 L 30.3 1799.0 L 41.3 1810.1 L 52.1 1821.4 L 62.6 1833.0 L 72.9 1844.9 L 82.9 1856.9 L 92.7 1869.2 L 102.2 1881.7 L 111.7 1894.4 L 120.9 1907.1 L 130.1 1920.0 L 139.3 1933.0 L 148.5 1945.9 L 157.7 1958.8 L 167.0 1971.6 L 176.6 1984.2 L 186.3 1996.7 L 196.2 2009.0 L 206.4 2021.1 L 216.9 2032.9 L 227.7 2044.5 L 238.7 2055.8 L 250.1 2066.8 L 261.6 2077.6 L 273.5 2088.2 L 285.5 2098.6 L 297.7 2108.9 L 310.0 2119.0 L 322.4 2129.1 L 334.9 2139.2 L 347.3 2149.3 L 359.6 2159.5 L 371.8 2169.7 L 383.8 2180.2 L 395.7 2190.8 L 407.3 2201.7" fill="none" stroke="#3d5a80" stroke-width="9" stroke-linecap="round" stroke-linejoin="round" stroke-opacity="0.9"/><path d="M 1610.0 1500.0 L 1598.5 1510.4 L 1587.0 1520.9 L 1575.5 1531.4 L 1564.3 1542.0 L 1553.1 1552.8 L 1542.2 1563.8 L 1531.6 1575.0 L 1521.2 1586.4 L 1511.0 1598.1 L 1501.1 1610.0 L 1491.5 1622.1 L 1482.1 1634.4 L 1472.9 1647.0 L 1463.8 1659.7 L 1454.9 1672.5 L 1446.1 1685.4 L 1437.3 1698.4 L 1428.5 1711.3 L 1419.7 1724.2 L 1410.7 1737.1 L 1401.5 1749.8 L 1392.2 1762.3 L 1382.6 1774.6 L 1372.7 1786.7 L 1362.5 1798.6 L 1352.1 1810.2 L 1341.4 1821.5 L 1330.4 1832.6 L 1319.1 1843.5 L 1307.6 1854.1 L 1295.8 1864.6 L 1284.0 1875.0 L 1271.9 1885.2 L 1259.9 1895.3 L 1247.8 1905.5 L 1235.7 1915.7 L 1223.7 1925.9 L 1211.8 1936.3 L 1200.1 1946.9 L 1188.6 1957.6 L 1177.3 1968.5 L 1166.3 1979.7 L 1155.5 1991.1 L 1145.0 2002.8 L 1134.7 2014.7 L 1124.6 2026.9 L 1114.7 2039.2 L 1105.0 2051.7 L 1095.5 2064.4 L 1086.0 2077.1 L 1076.5 2090.0 L 1067.1 2102.8 L 1057.6 2115.5 L 1047.9 2128.2 L 1038.2 2140.8 L 1028.2 2153.2 L 1018.0 2165.3 L 1007.5 2177.3" fill="none" stroke="#4a7c59" stroke-width="9" stroke-linecap="round" stroke-linejoin="round" stroke-opacity="0.9"/><path d="M 1631.3 1518.2 L 1619.7 1528.6 L 1608.2 1539.1 L 1596.8 1549.6 L 1585.5 1560.3 L 1574.3 1571.1 L 1563.4 1582.1 L 1552.7 1593.3 L 1542.3 1604.8 L 1532.1 1616.5 L 1522.2 1628.4 L 1512.6 1640.5 L 1503.1 1652.9 L 1493.9 1665.5 L 1484.9 1678.2 L 1475.9 1691.0 L 1467.1 1704.0 L 1458.3 1716.9 L 1449.5 1729.9 L 1440.6 1742.9 L 1431.6 1755.7 L 1422.4 1768.4 L 1413.0 1781.0 L 1403.4 1793.3 L 1393.5 1805.5 L 1383.3 1817.3 L 1372.9 1829.0 L 1362.1 1840.3 L 1351.1 1851.5 L 1339.8 1862.3 L 1328.2 1873.0 L 1316.5 1883.5 L 1304.6 1893.9 L 1292.6 1904.1 L 1280.5 1914.3 L 1268.3 1924.5 L 1256.3 1934.7 L 1244.2 1945.0 L 1232.4 1955.4 L 1220.6 1965.9 L 1209.1 1976.7 L 1197.8 1987.6 L 1186.7 1998.8 L 1175.9 2010.3 L 1165.4 2022.0 L 1155.0 2033.9 L 1145.0 2046.1 L 1135.1 2058.5 L 1125.4 2071.0 L 1115.8 2083.7 L 1106.3 2096.5 L 1096.8 2109.3 L 1087.3 2122.1 L 1077.8 2134.9 L 1068.1 2147.6 L 1058.3 2160.2 L 1048.3 2172.6 L 1038.1 2184.8 L 1027.6 2196.8" fill="none" stroke="#c84b31" stroke-width="9" stroke-linecap="round" stroke-linejoin="round" stroke-opacity="0.9"/><path d="M 1652.6 1536.3 L 1641.0 1546.8 L 1629.5 1557.3 L 1618.0 1567.9 L 1606.7 1578.6 L 1595.5 1589.4 L 1584.6 1600.4 L 1573.9 1611.7 L 1563.4 1623.1 L 1553.2 1634.9 L 1543.3 1646.8 L 1533.6 1659.0 L 1524.2 1671.4 L 1514.9 1683.9 L 1505.9 1696.7 L 1496.9 1709.6 L 1488.1 1722.5 L 1479.2 1735.5 L 1470.4 1748.5 L 1461.5 1761.5 L 1452.4 1774.4 L 1443.2 1787.1 L 1433.8 1799.7 L 1424.2 1812.0 L 1414.3 1824.2 L 1404.1 1836.1 L 1393.6 1847.7 L 1382.9 1859.1 L 1371.8 1870.3 L 1360.5 1881.2 L 1348.9 1891.9 L 1337.2 1902.4 L 1325.2 1912.8 L 1313.2 1923.1 L 1301.1 1933.3 L 1288.9 1943.5 L 1276.8 1953.7 L 1264.8 1964.0 L 1252.9 1974.4 L 1241.1 1985.0 L 1229.6 1995.8 L 1218.3 2006.8 L 1207.2 2018.0 L 1196.3 2029.5 L 1185.8 2041.2 L 1175.4 2053.1 L 1165.3 2065.3 L 1155.4 2077.7 L 1145.7 2090.3 L 1136.1 2103.0 L 1126.5 2115.8 L 1117.0 2128.6 L 1107.5 2141.5 L 1098.0 2154.3 L 1088.3 2167.0 L 1078.5 2179.6 L 1068.5 2192.1 L 1058.2 2204.3 L 1047.7 2216.3" fill="none" stroke="#ff6b6b" stroke-width="9" stroke-linecap="round" stroke-linejoin="round" stroke-opacity="0.9"/><path d="M -170.0 760.0 L -159.7 765.0 L -149.7 769.9 L -140.2 774.8 L -131.0 779.5 L -122.1 784.0 L -113.7 788.4 L -105.5 792.5 L -97.7 796.4 L -90.2 800.1 L -83.0 803.5 L -76.0 806.7 L -69.4 809.6 L -62.9 812.3 L -56.7 814.8 L -50.8 817.2 L -45.1 819.4 L -39.6 821.6 L -34.4 823.7 L -29.4 825.9 L -24.6 828.2 L -20.2 830.6 L -16.0 833.3 L -12.2 836.2 L -8.7 839.4 L -5.8 843.0 L -3.3 846.9 L -1.5 851.1 L -0.4 855.5 L 0.0 860.0 L -0.4 864.5 L -1.5 868.9 L -3.3 873.1 L -5.8 877.0 L -8.7 880.6 L -12.2 883.8 L -16.0 886.7 L -20.2 889.4 L -24.6 891.8 L -29.4 894.1 L -34.4 896.3 L -39.6 898.4 L -45.1 900.6 L -50.8 902.8 L -56.7 905.2 L -62.9 907.7 L -69.4 910.4 L -76.0 913.3 L -83.0 916.5 L -90.2 919.9 L -97.7 923.6 L -105.5 927.5 L -113.7 931.6 L -122.1 936.0 L -131.0 940.5 L -140.2 945.2 L -149.7 950.1 L -159.7 955.0 L -170.0 960.0" fill="none" stroke="#4a7c59" stroke-width="9" stroke-linecap="round" stroke-linejoin="round" stroke-opacity="0.9"/><path d="M -177.8 784.8 L -167.7 789.7 L -158.0 794.6 L -148.7 799.3 L -139.8 803.9 L -131.3 808.4 L -123.2 812.6 L -115.4 816.6 L -108.0 820.3 L -100.9 823.8 L -94.2 827.0 L -87.7 829.9 L -81.6 832.5 L -75.7 834.9 L -70.2 837.1 L -64.9 839.0 L -60.0 840.7 L -55.3 842.3 L -50.9 843.8 L -46.8 845.2 L -43.1 846.5 L -39.7 847.8 L -36.6 849.2 L -33.8 850.6 L -31.5 852.0 L -29.5 853.5 L -28.0 855.0 L -26.9 856.7 L -26.2 858.3 L -26.0 860.0 L -26.2 861.7 L -26.9 863.3 L -28.0 865.0 L -29.5 866.5 L -31.5 868.0 L -33.8 869.4 L -36.6 870.8 L -39.7 872.2 L -43.1 873.5 L -46.8 874.8 L -50.9 876.2 L -55.3 877.7 L -60.0 879.3 L -64.9 881.0 L -70.2 882.9 L -75.7 885.1 L -81.6 887.5 L -87.7 890.1 L -94.2 893.0 L -100.9 896.2 L -108.0 899.7 L -115.4 903.4 L -123.2 907.4 L -131.3 911.6 L -139.8 916.1 L -148.7 920.7 L -158.0 925.4 L -167.7 930.3 L -177.8 935.2" fill="none" stroke="#e5a93c" stroke-width="9" stroke-linecap="round" stroke-linejoin="round" stroke-opacity="0.9"/><path d="M -170.0 1150.0 L -159.7 1155.0 L -149.7 1159.9 L -140.2 1164.8 L -131.0 1169.5 L -122.1 1174.0 L -113.7 1178.4 L -105.5 1182.5 L -97.7 1186.4 L -90.2 1190.1 L -83.0 1193.5 L -76.0 1196.7 L -69.4 1199.6 L -62.9 1202.3 L -56.7 1204.8 L -50.8 1207.2 L -45.1 1209.4 L -39.6 1211.6 L -34.4 1213.7 L -29.4 1215.9 L -24.6 1218.2 L -20.2 1220.6 L -16.0 1223.3 L -12.2 1226.2 L -8.7 1229.4 L -5.8 1233.0 L -3.3 1236.9 L -1.5 1241.1 L -0.4 1245.5 L 0.0 1250.0 L -0.4 1254.5 L -1.5 1258.9 L -3.3 1263.1 L -5.8 1267.0 L -8.7 1270.6 L -12.2 1273.8 L -16.0 1276.7 L -20.2 1279.4 L -24.6 1281.8 L -29.4 1284.1 L -34.4 1286.3 L -39.6 1288.4 L -45.1 1290.6 L -50.8 1292.8 L -56.7 1295.2 L -62.9 1297.7 L -69.4 1300.4 L -76.0 1303.3 L -83.0 1306.5 L -90.2 1309.9 L -97.7 1313.6 L -105.5 1317.5 L -113.7 1321.6 L -122.1 1326.0 L -131.0 1330.5 L -140.2 1335.2 L -149.7 1340.1 L -159.7 1345.0 L -170.0 1350.0" fill="none" stroke="#ff6b6b" stroke-width="9" stroke-linecap="round" stroke-linejoin="round" stroke-opacity="0.9"/><path d="M -177.8 1174.8 L -167.7 1179.7 L -158.0 1184.6 L -148.7 1189.3 L -139.8 1193.9 L -131.3 1198.4 L -123.2 1202.6 L -115.4 1206.6 L -108.0 1210.3 L -100.9 1213.8 L -94.2 1217.0 L -87.7 1219.9 L -81.6 1222.5 L -75.7 1224.9 L -70.2 1227.1 L -64.9 1229.0 L -60.0 1230.7 L -55.3 1232.3 L -50.9 1233.8 L -46.8 1235.2 L -43.1 1236.5 L -39.7 1237.8 L -36.6 1239.2 L -33.8 1240.6 L -31.5 1242.0 L -29.5 1243.5 L -28.0 1245.0 L -26.9 1246.7 L -26.2 1248.3 L -26.0 1250.0 L -26.2 1251.7 L -26.9 1253.3 L -28.0 1255.0 L -29.5 1256.5 L -31.5 1258.0 L -33.8 1259.4 L -36.6 1260.8 L -39.7 1262.2 L -43.1 1263.5 L -46.8 1264.8 L -50.9 1266.2 L -55.3 1267.7 L -60.0 1269.3 L -64.9 1271.0 L -70.2 1272.9 L -75.7 1275.1 L -81.6 1277.5 L -87.7 1280.1 L -94.2 1283.0 L -100.9 1286.2 L -108.0 1289.7 L -115.4 1293.4 L -123.2 1297.4 L -131.3 1301.6 L -139.8 1306.1 L -148.7 1310.7 L -158.0 1315.4 L -167.7 1320.3 L -177.8 1325.2" fill="none" stroke="#3d5a80" stroke-width="9" stroke-linecap="round" stroke-linejoin="round" stroke-opacity="0.9"/><path d="M 1610.0 700.0 L 1599.0 701.9 L 1588.3 703.9 L 1578.0 705.9 L 1568.1 708.1 L 1558.5 710.5 L 1549.4 713.0 L 1540.7 715.8 L 1532.4 718.8 L 1524.5 722.0 L 1517.1 725.5 L 1510.2 729.3 L 1503.8 733.2 L 1497.9 737.4 L 1492.4 741.8 L 1487.5 746.3 L 1483.1 751.0 L 1479.3 755.7 L 1475.9 760.4 L 1473.1 765.1 L 1470.7 769.7 L 1468.8 774.2 L 1467.4 778.4 L 1466.4 782.3 L 1465.7 786.0 L 1465.3 789.3 L 1465.1 792.4 L 1465.0 795.1 L 1465.0 797.6 L 1465.0 800.0 L 1465.0 802.4 L 1465.0 804.9 L 1465.1 807.6 L 1465.3 810.7 L 1465.7 814.0 L 1466.4 817.7 L 1467.4 821.6 L 1468.8 825.8 L 1470.7 830.3 L 1473.1 834.9 L 1475.9 839.6 L 1479.3 844.3 L 1483.1 849.0 L 1487.5 853.7 L 1492.4 858.2 L 1497.9 862.6 L 1503.8 866.8 L 1510.2 870.7 L 1517.1 874.5 L 1524.5 878.0 L 1532.4 881.2 L 1540.7 884.2 L 1549.4 887.0 L 1558.5 889.5 L 1568.1 891.9 L 1578.0 894.1 L 1588.3 896.1 L 1599.0 898.1 L 1610.0 900.0" fill="none" stroke="#3d5a80" stroke-width="9" stroke-linecap="round" stroke-linejoin="round" stroke-opacity="0.9"/><path d="M 1618.0 724.7 L 1607.2 726.6 L 1596.8 728.4 L 1586.8 730.4 L 1577.2 732.5 L 1568.0 734.7 L 1559.2 737.1 L 1550.8 739.7 L 1542.9 742.5 L 1535.5 745.6 L 1528.6 748.9 L 1522.2 752.3 L 1516.3 756.0 L 1511.0 759.9 L 1506.2 763.9 L 1502.0 768.0 L 1498.3 772.1 L 1495.2 776.2 L 1492.8 780.2 L 1490.8 784.1 L 1489.4 787.7 L 1488.6 791.1 L 1488.2 794.0 L 1488.2 796.4 L 1488.6 798.3 L 1489.2 799.6 L 1489.8 800.3 L 1490.4 800.5 L 1490.8 800.4 L 1491.0 800.0 L 1490.8 799.6 L 1490.4 799.5 L 1489.8 799.7 L 1489.2 800.4 L 1488.6 801.7 L 1488.2 803.6 L 1488.2 806.0 L 1488.6 808.9 L 1489.4 812.3 L 1490.8 815.9 L 1492.8 819.8 L 1495.2 823.8 L 1498.3 827.9 L 1502.0 832.0 L 1506.2 836.1 L 1511.0 840.1 L 1516.3 844.0 L 1522.2 847.7 L 1528.6 851.1 L 1535.5 854.4 L 1542.9 857.5 L 1550.8 860.3 L 1559.2 862.9 L 1568.0 865.3 L 1577.2 867.5 L 1586.8 869.6 L 1596.8 871.6 L 1607.2 873.4 L 1618.0 875.3" fill="none" stroke="#ff6b6b" stroke-width="9" stroke-linecap="round" stroke-linejoin="round" stroke-opacity="0.9"/><path d="M 1610.0 1120.0 L 1599.0 1121.9 L 1588.3 1123.9 L 1578.0 1125.9 L 1568.1 1128.1 L 1558.5 1130.5 L 1549.4 1133.0 L 1540.7 1135.8 L 1532.4 1138.8 L 1524.5 1142.0 L 1517.1 1145.5 L 1510.2 1149.3 L 1503.8 1153.2 L 1497.9 1157.4 L 1492.4 1161.8 L 1487.5 1166.3 L 1483.1 1171.0 L 1479.3 1175.7 L 1475.9 1180.4 L 1473.1 1185.1 L 1470.7 1189.7 L 1468.8 1194.2 L 1467.4 1198.4 L 1466.4 1202.3 L 1465.7 1206.0 L 1465.3 1209.3 L 1465.1 1212.4 L 1465.0 1215.1 L 1465.0 1217.6 L 1465.0 1220.0 L 1465.0 1222.4 L 1465.0 1224.9 L 1465.1 1227.6 L 1465.3 1230.7 L 1465.7 1234.0 L 1466.4 1237.7 L 1467.4 1241.6 L 1468.8 1245.8 L 1470.7 1250.3 L 1473.1 1254.9 L 1475.9 1259.6 L 1479.3 1264.3 L 1483.1 1269.0 L 1487.5 1273.7 L 1492.4 1278.2 L 1497.9 1282.6 L 1503.8 1286.8 L 1510.2 1290.7 L 1517.1 1294.5 L 1524.5 1298.0 L 1532.4 1301.2 L 1540.7 1304.2 L 1549.4 1307.0 L 1558.5 1309.5 L 1568.1 1311.9 L 1578.0 1314.1 L 1588.3 1316.1 L 1599.0 1318.1 L 1610.0 1320.0" fill="none" stroke="#e5a93c" stroke-width="9" stroke-linecap="round" stroke-linejoin="round" stroke-opacity="0.9"/><path d="M 1618.0 1144.7 L 1607.2 1146.6 L 1596.8 1148.4 L 1586.8 1150.4 L 1577.2 1152.5 L 1568.0 1154.7 L 1559.2 1157.1 L 1550.8 1159.7 L 1542.9 1162.5 L 1535.5 1165.6 L 1528.6 1168.9 L 1522.2 1172.3 L 1516.3 1176.0 L 1511.0 1179.9 L 1506.2 1183.9 L 1502.0 1188.0 L 1498.3 1192.1 L 1495.2 1196.2 L 1492.8 1200.2 L 1490.8 1204.1 L 1489.4 1207.7 L 1488.6 1211.1 L 1488.2 1214.0 L 1488.2 1216.4 L 1488.6 1218.3 L 1489.2 1219.6 L 1489.8 1220.3 L 1490.4 1220.5 L 1490.8 1220.4 L 1491.0 1220.0 L 1490.8 1219.6 L 1490.4 1219.5 L 1489.8 1219.7 L 1489.2 1220.4 L 1488.6 1221.7 L 1488.2 1223.6 L 1488.2 1226.0 L 1488.6 1228.9 L 1489.4 1232.3 L 1490.8 1235.9 L 1492.8 1239.8 L 1495.2 1243.8 L 1498.3 1247.9 L 1502.0 1252.0 L 1506.2 1256.1 L 1511.0 1260.1 L 1516.3 1264.0 L 1522.2 1267.7 L 1528.6 1271.1 L 1535.5 1274.4 L 1542.9 1277.5 L 1550.8 1280.3 L 1559.2 1282.9 L 1568.0 1285.3 L 1577.2 1287.5 L 1586.8 1289.6 L 1596.8 1291.6 L 1607.2 1293.4 L 1618.0 1295.3" fill="none" stroke="#4a7c59" stroke-width="9" stroke-linecap="round" stroke-linejoin="round" stroke-opacity="0.9"/><path d="M 560.0 2170.0 L 567.1 2161.8 L 574.2 2154.0 L 581.1 2146.5 L 587.9 2139.3 L 594.4 2132.3 L 600.7 2125.6 L 606.7 2119.0 L 612.5 2112.6 L 618.0 2106.4 L 623.2 2100.2 L 628.2 2094.2 L 633.0 2088.2 L 637.5 2082.3 L 642.0 2076.6 L 646.3 2070.9 L 650.7 2065.3 L 655.0 2059.9 L 659.4 2054.6 L 664.0 2049.6 L 668.7 2044.9 L 673.6 2040.5 L 678.8 2036.5 L 684.2 2033.0 L 689.8 2030.0 L 695.6 2027.6 L 701.6 2025.8 L 707.7 2024.7 L 713.9 2024.3 L 720.0 2024.5 L 726.1 2025.5 L 732.0 2027.0 L 737.8 2029.2 L 743.4 2031.8 L 748.8 2035.0 L 753.9 2038.5 L 758.8 2042.4 L 763.5 2046.6 L 768.1 2050.9 L 772.6 2055.4 L 777.1 2060.0 L 781.6 2064.7 L 786.2 2069.5 L 790.8 2074.3 L 795.7 2079.2 L 800.8 2084.1 L 806.1 2089.2 L 811.7 2094.3 L 817.5 2099.5 L 823.6 2105.0 L 830.0 2110.6 L 836.6 2116.4 L 843.4 2122.6 L 850.3 2129.0 L 857.3 2135.7 L 864.4 2142.9 L 871.5 2150.4 L 878.6 2158.3 L 885.6 2166.7" fill="none" stroke="#ff6b6b" stroke-width="9" stroke-linecap="round" stroke-linejoin="round" stroke-opacity="0.9"/><path d="M 584.1 2184.3 L 591.0 2176.5 L 597.8 2169.1 L 604.5 2162.0 L 610.9 2155.2 L 617.2 2148.6 L 623.1 2142.4 L 628.8 2136.3 L 634.2 2130.4 L 639.2 2124.6 L 644.0 2119.0 L 648.5 2113.5 L 652.7 2108.1 L 656.6 2102.8 L 660.4 2097.6 L 664.0 2092.6 L 667.6 2087.6 L 671.0 2082.8 L 674.5 2078.2 L 678.1 2073.8 L 681.7 2069.7 L 685.5 2065.9 L 689.4 2062.5 L 693.4 2059.4 L 697.6 2056.9 L 702.0 2054.9 L 706.4 2053.4 L 710.9 2052.5 L 715.5 2052.2 L 720.0 2052.5 L 724.5 2053.4 L 728.8 2054.8 L 733.0 2056.7 L 737.1 2059.1 L 740.9 2061.9 L 744.7 2065.0 L 748.2 2068.4 L 751.7 2072.0 L 755.1 2075.7 L 758.6 2079.6 L 762.0 2083.6 L 765.6 2087.7 L 769.3 2091.8 L 773.2 2096.0 L 777.3 2100.3 L 781.7 2104.6 L 786.4 2109.1 L 791.4 2113.6 L 796.8 2118.3 L 802.4 2123.2 L 808.3 2128.3 L 814.5 2133.7 L 820.9 2139.3 L 827.5 2145.3 L 834.3 2151.6 L 841.1 2158.3 L 847.9 2165.4 L 854.7 2173.0 L 861.5 2181.0" fill="none" stroke="#e5a93c" stroke-width="9" stroke-linecap="round" stroke-linejoin="round" stroke-opacity="0.9"/><path d="M 608.2 2198.5 L 614.9 2191.1 L 621.4 2184.1 L 627.8 2177.4 L 634.0 2171.0 L 639.9 2164.9 L 645.6 2159.1 L 650.9 2153.5 L 655.8 2148.1 L 660.5 2142.9 L 664.8 2137.8 L 668.7 2132.9 L 672.3 2128.0 L 675.7 2123.3 L 678.8 2118.7 L 681.7 2114.3 L 684.4 2109.9 L 687.1 2105.8 L 689.6 2101.8 L 692.2 2098.0 L 694.7 2094.5 L 697.3 2091.3 L 699.9 2088.4 L 702.6 2085.9 L 705.4 2083.8 L 708.3 2082.2 L 711.2 2081.0 L 714.2 2080.3 L 717.1 2080.2 L 720.0 2080.5 L 722.8 2081.4 L 725.6 2082.6 L 728.2 2084.3 L 730.7 2086.4 L 733.1 2088.8 L 735.4 2091.4 L 737.7 2094.3 L 739.9 2097.3 L 742.2 2100.5 L 744.5 2103.8 L 746.9 2107.2 L 749.5 2110.6 L 752.4 2114.2 L 755.5 2117.7 L 758.9 2121.4 L 762.6 2125.1 L 766.7 2129.0 L 771.2 2133.0 L 776.0 2137.1 L 781.2 2141.5 L 786.7 2146.0 L 792.5 2150.9 L 798.5 2156.1 L 804.8 2161.6 L 811.2 2167.5 L 817.7 2173.7 L 824.3 2180.4 L 830.9 2187.6 L 837.4 2195.3" fill="none" stroke="#4a7c59" stroke-width="9" stroke-linecap="round" stroke-linejoin="round" stroke-opacity="0.9"/><path d="M -200.0 692.2 L -190.8 702.9 L -181.6 713.5 L -172.4 723.9 L -163.2 734.2 L -154.0 744.3 L -144.8 754.2 L -135.6 763.8 L -126.4 773.3 L -117.2 782.5 L -108.0 791.4 L -98.8 800.1 L -89.6 808.5 L -80.4 816.6 L -71.2 824.4 L -62.0 831.9 L -52.8 839.1 L -43.6 845.9 L -34.4 852.4 L -25.2 858.5 L -16.0 864.3 L -6.8 869.7 L 2.4 874.7 L 11.6 879.4 L 20.8 883.6 L 30.0 887.5 L 39.2 890.9 L 48.4 894.0 L 57.6 896.6 L 66.8 898.8 L 76.0 900.6 L 85.2 901.9 L 94.4 902.9 L 103.6 903.4 L 112.8 903.5 L 122.0 903.1 L 131.2 902.4 L 140.4 901.2 L 149.6 899.6 L 158.8 897.6 L 168.0 895.1 L 177.2 892.2 L 186.4 889.0 L 195.6 885.3 L 204.8 881.2 L 214.0 876.7 L 223.2 871.9 L 232.4 866.6 L 241.6 861.0 L 250.8 855.0 L 260.0 848.7 L 269.2 842.0 L 278.4 835.0 L 287.6 827.6 L 296.8 819.9 L 306.0 811.9 L 315.2 803.7 L 324.4 795.1 L 333.6 786.3 L 342.8 777.2 L 352.0 767.8 L 361.2 758.2 L 370.4 748.4 L 379.6 738.4 L 388.8 728.2 L 398.0 717.9 L 407.2 707.3 L 416.4 696.7 L 425.6 685.8 L 434.8 674.9 L 444.0 663.9 L 453.2 652.8 L 462.4 641.6 L 471.6 630.3 L 480.8 619.1 L 490.0 607.7 L 499.2 596.4 L 508.4 585.1 L 517.6 573.9 L 526.8 562.6 L 536.0 551.5 L 545.2 540.4 L 554.4 529.4 L 563.6 518.5 L 572.8 507.7 L 582.0 497.0 L 591.2 486.5 L 600.4 476.2 L 609.6 466.1 L 618.8 456.1 L 628.0 446.4 L 637.2 436.8 L 646.4 427.6 L 655.6 418.5 L 664.8 409.7 L 674.0 401.3 L 683.2 393.0 L 692.4 385.1 L 701.6 377.5 L 710.8 370.3 L 720.0 363.3 L 729.2 356.7 L 738.4 350.5 L 747.6 344.6 L 756.8 339.0 L 766.0 333.9 L 775.2 329.1 L 784.4 324.7 L 793.6 320.8 L 802.8 317.2 L 812.0 314.0 L 821.2 311.2 L 830.4 308.9 L 839.6 307.0 L 848.8 305.5 L 858.0 304.4 L 867.2 303.7 L 876.4 303.5 L 885.6 303.7 L 894.8 304.3 L 904.0 305.4 L 913.2 306.8 L 922.4 308.7 L 931.6 311.0 L 940.8 313.8 L 950.0 316.9 L 959.2 320.4 L 968.4 324.4 L 977.6 328.7 L 986.8 333.5 L 996.0 338.6 L 1005.2 344.1 L 1014.4 349.9 L 1023.6 356.2 L 1032.8 362.7 L 1042.0 369.7 L 1051.2 376.9 L 1060.4 384.5 L 1069.6 392.4 L 1078.8 400.5 L 1088.0 409.0 L 1097.2 417.8 L 1106.4 426.8 L 1115.6 436.0 L 1124.8 445.5 L 1134.0 455.3 L 1143.2 465.2 L 1152.4 475.3 L 1161.6 485.6 L 1170.8 496.1 L 1180.0 506.8 L 1189.2 517.5 L 1198.4 528.4 L 1207.6 539.4 L 1216.8 550.5 L 1226.0 561.7 L 1235.2 572.9 L 1244.4 584.2 L 1253.6 595.5 L 1262.8 606.8 L 1272.0 618.1 L 1281.2 629.4 L 1290.4 640.6 L 1299.6 651.8 L 1308.8 662.9 L 1318.0 674.0 L 1327.2 684.9 L 1336.4 695.8 L 1345.6 706.4 L 1354.8 717.0 L 1364.0 727.4 L 1373.2 737.6 L 1382.4 747.6 L 1391.6 757.4 L 1400.8 767.0 L 1410.0 776.4 L 1419.2 785.5 L 1428.4 794.4 L 1437.6 802.9 L 1446.8 811.3 L 1456.0 819.3 L 1465.2 827.0 L 1474.4 834.3 L 1483.6 841.4 L 1492.8 848.1 L 1502.0 854.5 L 1511.2 860.5 L 1520.4 866.2 L 1529.6 871.4 L 1538.8 876.3 L 1548.0 880.8 L 1557.2 885.0 L 1566.4 888.7 L 1575.6 892.0 L 1584.8 894.9 L 1594.0 897.4 L 1603.2 899.4 L 1612.4 901.1 L 1621.6 902.3 L 1630.8 903.1 L 1640.0 903.5" fill="none" stroke="#ff6b6b" stroke-width="7" stroke-linecap="round" stroke-linejoin="round" stroke-opacity="0.9"/><path d="M -200.0 705.2 L -190.8 715.9 L -181.6 726.5 L -172.4 736.9 L -163.2 747.2 L -154.0 757.3 L -144.8 767.2 L -135.6 776.8 L -126.4 786.3 L -117.2 795.5 L -108.0 804.4 L -98.8 813.1 L -89.6 821.5 L -80.4 829.6 L -71.2 837.4 L -62.0 844.9 L -52.8 852.1 L -43.6 858.9 L -34.4 865.4 L -25.2 871.5 L -16.0 877.3 L -6.8 882.7 L 2.4 887.7 L 11.6 892.4 L 20.8 896.6 L 30.0 900.5 L 39.2 903.9 L 48.4 907.0 L 57.6 909.6 L 66.8 911.8 L 76.0 913.6 L 85.2 914.9 L 94.4 915.9 L 103.6 916.4 L 112.8 916.5 L 122.0 916.1 L 131.2 915.4 L 140.4 914.2 L 149.6 912.6 L 158.8 910.6 L 168.0 908.1 L 177.2 905.2 L 186.4 902.0 L 195.6 898.3 L 204.8 894.2 L 214.0 889.7 L 223.2 884.9 L 232.4 879.6 L 241.6 874.0 L 250.8 868.0 L 260.0 861.7 L 269.2 855.0 L 278.4 848.0 L 287.6 840.6 L 296.8 832.9 L 306.0 824.9 L 315.2 816.7 L 324.4 808.1 L 333.6 799.3 L 342.8 790.2 L 352.0 780.8 L 361.2 771.2 L 370.4 761.4 L 379.6 751.4 L 388.8 741.2 L 398.0 730.9 L 407.2 720.3 L 416.4 709.7 L 425.6 698.8 L 434.8 687.9 L 444.0 676.9 L 453.2 665.8 L 462.4 654.6 L 471.6 643.3 L 480.8 632.1 L 490.0 620.7 L 499.2 609.4 L 508.4 598.1 L 517.6 586.9 L 526.8 575.6 L 536.0 564.5 L 545.2 553.4 L 554.4 542.4 L 563.6 531.5 L 572.8 520.7 L 582.0 510.0 L 591.2 499.5 L 600.4 489.2 L 609.6 479.1 L 618.8 469.1 L 628.0 459.4 L 637.2 449.8 L 646.4 440.6 L 655.6 431.5 L 664.8 422.7 L 674.0 414.3 L 683.2 406.0 L 692.4 398.1 L 701.6 390.5 L 710.8 383.3 L 720.0 376.3 L 729.2 369.7 L 738.4 363.5 L 747.6 357.6 L 756.8 352.0 L 766.0 346.9 L 775.2 342.1 L 784.4 337.7 L 793.6 333.8 L 802.8 330.2 L 812.0 327.0 L 821.2 324.2 L 830.4 321.9 L 839.6 320.0 L 848.8 318.5 L 858.0 317.4 L 867.2 316.7 L 876.4 316.5 L 885.6 316.7 L 894.8 317.3 L 904.0 318.4 L 913.2 319.8 L 922.4 321.7 L 931.6 324.0 L 940.8 326.8 L 950.0 329.9 L 959.2 333.4 L 968.4 337.4 L 977.6 341.7 L 986.8 346.5 L 996.0 351.6 L 1005.2 357.1 L 1014.4 362.9 L 1023.6 369.2 L 1032.8 375.7 L 1042.0 382.7 L 1051.2 389.9 L 1060.4 397.5 L 1069.6 405.4 L 1078.8 413.5 L 1088.0 422.0 L 1097.2 430.8 L 1106.4 439.8 L 1115.6 449.0 L 1124.8 458.5 L 1134.0 468.3 L 1143.2 478.2 L 1152.4 488.3 L 1161.6 498.6 L 1170.8 509.1 L 1180.0 519.8 L 1189.2 530.5 L 1198.4 541.4 L 1207.6 552.4 L 1216.8 563.5 L 1226.0 574.7 L 1235.2 585.9 L 1244.4 597.2 L 1253.6 608.5 L 1262.8 619.8 L 1272.0 631.1 L 1281.2 642.4 L 1290.4 653.6 L 1299.6 664.8 L 1308.8 675.9 L 1318.0 687.0 L 1327.2 697.9 L 1336.4 708.8 L 1345.6 719.4 L 1354.8 730.0 L 1364.0 740.4 L 1373.2 750.6 L 1382.4 760.6 L 1391.6 770.4 L 1400.8 780.0 L 1410.0 789.4 L 1419.2 798.5 L 1428.4 807.4 L 1437.6 815.9 L 1446.8 824.3 L 1456.0 832.3 L 1465.2 840.0 L 1474.4 847.3 L 1483.6 854.4 L 1492.8 861.1 L 1502.0 867.5 L 1511.2 873.5 L 1520.4 879.2 L 1529.6 884.4 L 1538.8 889.3 L 1548.0 893.8 L 1557.2 898.0 L 1566.4 901.7 L 1575.6 905.0 L 1584.8 907.9 L 1594.0 910.4 L 1603.2 912.4 L 1612.4 914.1 L 1621.6 915.3 L 1630.8 916.1 L 1640.0 916.5" fill="none" stroke="#e5a93c" stroke-width="7" stroke-linecap="round" stroke-linejoin="round" stroke-opacity="0.9"/><path d="M -200.0 713.1 L -190.8 704.0 L -181.6 694.8 L -172.4 685.4 L -163.2 675.8 L -154.0 666.1 L -144.8 656.4 L -135.6 646.5 L -126.4 636.7 L -117.2 626.8 L -108.0 616.9 L -98.8 607.1 L -89.6 597.4 L -80.4 587.7 L -71.2 578.3 L -62.0 568.9 L -52.8 559.8 L -43.6 550.8 L -34.4 542.1 L -25.2 533.7 L -16.0 525.5 L -6.8 517.7 L 2.4 510.2 L 11.6 503.0 L 20.8 496.2 L 30.0 489.8 L 39.2 483.8 L 48.4 478.3 L 57.6 473.2 L 66.8 468.5 L 76.0 464.3 L 85.2 460.6 L 94.4 457.4 L 103.6 454.7 L 112.8 452.6 L 122.0 450.9 L 131.2 449.7 L 140.4 449.1 L 149.6 449.0 L 158.8 449.5 L 168.0 450.4 L 177.2 451.9 L 186.4 453.9 L 195.6 456.4 L 204.8 459.4 L 214.0 463.0 L 223.2 467.0 L 232.4 471.4 L 241.6 476.4 L 250.8 481.8 L 260.0 487.6 L 269.2 493.9 L 278.4 500.5 L 287.6 507.5 L 296.8 514.9 L 306.0 522.7 L 315.2 530.7 L 324.4 539.0 L 333.6 547.7 L 342.8 556.5 L 352.0 565.6 L 361.2 574.9 L 370.4 584.3 L 379.6 593.9 L 388.8 603.6 L 398.0 613.4 L 407.2 623.2 L 416.4 633.1 L 425.6 643.0 L 434.8 652.8 L 444.0 662.6 L 453.2 672.3 L 462.4 681.9 L 471.6 691.4 L 480.8 700.7 L 490.0 709.8 L 499.2 718.7 L 508.4 727.4 L 517.6 735.8 L 526.8 743.9 L 536.0 751.7 L 545.2 759.1 L 554.4 766.2 L 563.6 772.9 L 572.8 779.3 L 582.0 785.2 L 591.2 790.6 L 600.4 795.7 L 609.6 800.2 L 618.8 804.3 L 628.0 808.0 L 637.2 811.1 L 646.4 813.7 L 655.6 815.8 L 664.8 817.3 L 674.0 818.4 L 683.2 818.9 L 692.4 818.9 L 701.6 818.4 L 710.8 817.4 L 720.0 815.8 L 729.2 813.7 L 738.4 811.1 L 747.6 808.0 L 756.8 804.4 L 766.0 800.3 L 775.2 795.7 L 784.4 790.7 L 793.6 785.2 L 802.8 779.3 L 812.0 773.0 L 821.2 766.3 L 830.4 759.2 L 839.6 751.7 L 848.8 743.9 L 858.0 735.8 L 867.2 727.5 L 876.4 718.8 L 885.6 709.9 L 894.8 700.8 L 904.0 691.5 L 913.2 682.0 L 922.4 672.4 L 931.6 662.7 L 940.8 652.9 L 950.0 643.0 L 959.2 633.2 L 968.4 623.3 L 977.6 613.4 L 986.8 603.7 L 996.0 594.0 L 1005.2 584.4 L 1014.4 574.9 L 1023.6 565.7 L 1032.8 556.6 L 1042.0 547.7 L 1051.2 539.1 L 1060.4 530.8 L 1069.6 522.7 L 1078.8 515.0 L 1088.0 507.6 L 1097.2 500.6 L 1106.4 493.9 L 1115.6 487.7 L 1124.8 481.8 L 1134.0 476.4 L 1143.2 471.5 L 1152.4 467.0 L 1161.6 463.0 L 1170.8 459.5 L 1180.0 456.4 L 1189.2 453.9 L 1198.4 451.9 L 1207.6 450.4 L 1216.8 449.5 L 1226.0 449.0 L 1235.2 449.1 L 1244.4 449.7 L 1253.6 450.9 L 1262.8 452.5 L 1272.0 454.7 L 1281.2 457.4 L 1290.4 460.6 L 1299.6 464.3 L 1308.8 468.5 L 1318.0 473.1 L 1327.2 478.2 L 1336.4 483.8 L 1345.6 489.8 L 1354.8 496.2 L 1364.0 503.0 L 1373.2 510.1 L 1382.4 517.6 L 1391.6 525.5 L 1400.8 533.6 L 1410.0 542.1 L 1419.2 550.8 L 1428.4 559.7 L 1437.6 568.8 L 1446.8 578.2 L 1456.0 587.7 L 1465.2 597.3 L 1474.4 607.0 L 1483.6 616.8 L 1492.8 626.7 L 1502.0 636.6 L 1511.2 646.4 L 1520.4 656.3 L 1529.6 666.1 L 1538.8 675.7 L 1548.0 685.3 L 1557.2 694.7 L 1566.4 704.0 L 1575.6 713.0 L 1584.8 721.8 L 1594.0 730.4 L 1603.2 738.7 L 1612.4 746.7 L 1621.6 754.3 L 1630.8 761.7 L 1640.0 768.6" fill="none" stroke="#4a7c59" stroke-width="6" stroke-linecap="round" stroke-linejoin="round" stroke-opacity="0.9"/><path d="M -200.0 725.1 L -190.8 716.0 L -181.6 706.8 L -172.4 697.4 L -163.2 687.8 L -154.0 678.1 L -144.8 668.4 L -135.6 658.5 L -126.4 648.7 L -117.2 638.8 L -108.0 628.9 L -98.8 619.1 L -89.6 609.4 L -80.4 599.7 L -71.2 590.3 L -62.0 580.9 L -52.8 571.8 L -43.6 562.8 L -34.4 554.1 L -25.2 545.7 L -16.0 537.5 L -6.8 529.7 L 2.4 522.2 L 11.6 515.0 L 20.8 508.2 L 30.0 501.8 L 39.2 495.8 L 48.4 490.3 L 57.6 485.2 L 66.8 480.5 L 76.0 476.3 L 85.2 472.6 L 94.4 469.4 L 103.6 466.7 L 112.8 464.6 L 122.0 462.9 L 131.2 461.7 L 140.4 461.1 L 149.6 461.0 L 158.8 461.5 L 168.0 462.4 L 177.2 463.9 L 186.4 465.9 L 195.6 468.4 L 204.8 471.4 L 214.0 475.0 L 223.2 479.0 L 232.4 483.4 L 241.6 488.4 L 250.8 493.8 L 260.0 499.6 L 269.2 505.9 L 278.4 512.5 L 287.6 519.5 L 296.8 526.9 L 306.0 534.7 L 315.2 542.7 L 324.4 551.0 L 333.6 559.7 L 342.8 568.5 L 352.0 577.6 L 361.2 586.9 L 370.4 596.3 L 379.6 605.9 L 388.8 615.6 L 398.0 625.4 L 407.2 635.2 L 416.4 645.1 L 425.6 655.0 L 434.8 664.8 L 444.0 674.6 L 453.2 684.3 L 462.4 693.9 L 471.6 703.4 L 480.8 712.7 L 490.0 721.8 L 499.2 730.7 L 508.4 739.4 L 517.6 747.8 L 526.8 755.9 L 536.0 763.7 L 545.2 771.1 L 554.4 778.2 L 563.6 784.9 L 572.8 791.3 L 582.0 797.2 L 591.2 802.6 L 600.4 807.7 L 609.6 812.2 L 618.8 816.3 L 628.0 820.0 L 637.2 823.1 L 646.4 825.7 L 655.6 827.8 L 664.8 829.3 L 674.0 830.4 L 683.2 830.9 L 692.4 830.9 L 701.6 830.4 L 710.8 829.4 L 720.0 827.8 L 729.2 825.7 L 738.4 823.1 L 747.6 820.0 L 756.8 816.4 L 766.0 812.3 L 775.2 807.7 L 784.4 802.7 L 793.6 797.2 L 802.8 791.3 L 812.0 785.0 L 821.2 778.3 L 830.4 771.2 L 839.6 763.7 L 848.8 755.9 L 858.0 747.8 L 867.2 739.5 L 876.4 730.8 L 885.6 721.9 L 894.8 712.8 L 904.0 703.5 L 913.2 694.0 L 922.4 684.4 L 931.6 674.7 L 940.8 664.9 L 950.0 655.0 L 959.2 645.2 L 968.4 635.3 L 977.6 625.4 L 986.8 615.7 L 996.0 606.0 L 1005.2 596.4 L 1014.4 586.9 L 1023.6 577.7 L 1032.8 568.6 L 1042.0 559.7 L 1051.2 551.1 L 1060.4 542.8 L 1069.6 534.7 L 1078.8 527.0 L 1088.0 519.6 L 1097.2 512.6 L 1106.4 505.9 L 1115.6 499.7 L 1124.8 493.8 L 1134.0 488.4 L 1143.2 483.5 L 1152.4 479.0 L 1161.6 475.0 L 1170.8 471.5 L 1180.0 468.4 L 1189.2 465.9 L 1198.4 463.9 L 1207.6 462.4 L 1216.8 461.5 L 1226.0 461.0 L 1235.2 461.1 L 1244.4 461.7 L 1253.6 462.9 L 1262.8 464.5 L 1272.0 466.7 L 1281.2 469.4 L 1290.4 472.6 L 1299.6 476.3 L 1308.8 480.5 L 1318.0 485.1 L 1327.2 490.2 L 1336.4 495.8 L 1345.6 501.8 L 1354.8 508.2 L 1364.0 515.0 L 1373.2 522.1 L 1382.4 529.6 L 1391.6 537.5 L 1400.8 545.6 L 1410.0 554.1 L 1419.2 562.8 L 1428.4 571.7 L 1437.6 580.8 L 1446.8 590.2 L 1456.0 599.7 L 1465.2 609.3 L 1474.4 619.0 L 1483.6 628.8 L 1492.8 638.7 L 1502.0 648.6 L 1511.2 658.4 L 1520.4 668.3 L 1529.6 678.1 L 1538.8 687.7 L 1548.0 697.3 L 1557.2 706.7 L 1566.4 716.0 L 1575.6 725.0 L 1584.8 733.8 L 1594.0 742.4 L 1603.2 750.7 L 1612.4 758.7 L 1621.6 766.3 L 1630.8 773.7 L 1640.0 780.6" fill="none" stroke="#c84b31" stroke-width="6" stroke-linecap="round" stroke-linejoin="round" stroke-opacity="0.9"/><path d="M -200.0 1767.5 L -190.8 1771.8 L -181.6 1775.8 L -172.4 1779.5 L -163.2 1782.9 L -154.0 1785.9 L -144.8 1788.7 L -135.6 1791.1 L -126.4 1793.1 L -117.2 1794.9 L -108.0 1796.3 L -98.8 1797.3 L -89.6 1798.1 L -80.4 1798.4 L -71.2 1798.5 L -62.0 1798.2 L -52.8 1797.5 L -43.6 1796.6 L -34.4 1795.2 L -25.2 1793.6 L -16.0 1791.6 L -6.8 1789.3 L 2.4 1786.6 L 11.6 1783.7 L 20.8 1780.4 L 30.0 1776.8 L 39.2 1772.8 L 48.4 1768.6 L 57.6 1764.0 L 66.8 1759.2 L 76.0 1754.1 L 85.2 1748.6 L 94.4 1742.9 L 103.6 1737.0 L 112.8 1730.7 L 122.0 1724.2 L 131.2 1717.5 L 140.4 1710.5 L 149.6 1703.2 L 158.8 1695.8 L 168.0 1688.1 L 177.2 1680.2 L 186.4 1672.1 L 195.6 1663.8 L 204.8 1655.4 L 214.0 1646.7 L 223.2 1638.0 L 232.4 1629.0 L 241.6 1620.0 L 250.8 1610.8 L 260.0 1601.4 L 269.2 1592.0 L 278.4 1582.5 L 287.6 1572.9 L 296.8 1563.3 L 306.0 1553.5 L 315.2 1543.8 L 324.4 1533.9 L 333.6 1524.1 L 342.8 1514.3 L 352.0 1504.4 L 361.2 1494.6 L 370.4 1484.8 L 379.6 1475.0 L 388.8 1465.3 L 398.0 1455.6 L 407.2 1446.0 L 416.4 1436.4 L 425.6 1427.0 L 434.8 1417.7 L 444.0 1408.5 L 453.2 1399.4 L 462.4 1390.4 L 471.6 1381.6 L 480.8 1373.0 L 490.0 1364.5 L 499.2 1356.2 L 508.4 1348.1 L 517.6 1340.1 L 526.8 1332.4 L 536.0 1324.9 L 545.2 1317.7 L 554.4 1310.6 L 563.6 1303.8 L 572.8 1297.3 L 582.0 1291.0 L 591.2 1285.0 L 600.4 1279.2 L 609.6 1273.8 L 618.8 1268.6 L 628.0 1263.7 L 637.2 1259.1 L 646.4 1254.8 L 655.6 1250.8 L 664.8 1247.2 L 674.0 1243.8 L 683.2 1240.8 L 692.4 1238.1 L 701.6 1235.7 L 710.8 1233.7 L 720.0 1232.0 L 729.2 1230.6 L 738.4 1229.6 L 747.6 1228.9 L 756.8 1228.5 L 766.0 1228.5 L 775.2 1228.9 L 784.4 1229.5 L 793.6 1230.5 L 802.8 1231.9 L 812.0 1233.6 L 821.2 1235.6 L 830.4 1237.9 L 839.6 1240.6 L 848.8 1243.6 L 858.0 1246.9 L 867.2 1250.6 L 876.4 1254.5 L 885.6 1258.8 L 894.8 1263.4 L 904.0 1268.3 L 913.2 1273.4 L 922.4 1278.9 L 931.6 1284.6 L 940.8 1290.6 L 950.0 1296.9 L 959.2 1303.4 L 968.4 1310.2 L 977.6 1317.2 L 986.8 1324.4 L 996.0 1331.9 L 1005.2 1339.6 L 1014.4 1347.5 L 1023.6 1355.6 L 1032.8 1363.9 L 1042.0 1372.4 L 1051.2 1381.0 L 1060.4 1389.8 L 1069.6 1398.8 L 1078.8 1407.9 L 1088.0 1417.1 L 1097.2 1426.4 L 1106.4 1435.8 L 1115.6 1445.4 L 1124.8 1455.0 L 1134.0 1464.6 L 1143.2 1474.4 L 1152.4 1484.1 L 1161.6 1493.9 L 1170.8 1503.8 L 1180.0 1513.6 L 1189.2 1523.5 L 1198.4 1533.3 L 1207.6 1543.1 L 1216.8 1552.9 L 1226.0 1562.6 L 1235.2 1572.3 L 1244.4 1581.9 L 1253.6 1591.4 L 1262.8 1600.8 L 1272.0 1610.2 L 1281.2 1619.4 L 1290.4 1628.4 L 1299.6 1637.4 L 1308.8 1646.2 L 1318.0 1654.8 L 1327.2 1663.3 L 1336.4 1671.6 L 1345.6 1679.7 L 1354.8 1687.6 L 1364.0 1695.3 L 1373.2 1702.7 L 1382.4 1710.0 L 1391.6 1717.0 L 1400.8 1723.8 L 1410.0 1730.3 L 1419.2 1736.6 L 1428.4 1742.6 L 1437.6 1748.3 L 1446.8 1753.7 L 1456.0 1758.9 L 1465.2 1763.7 L 1474.4 1768.3 L 1483.6 1772.6 L 1492.8 1776.5 L 1502.0 1780.1 L 1511.2 1783.5 L 1520.4 1786.5 L 1529.6 1789.1 L 1538.8 1791.5 L 1548.0 1793.5 L 1557.2 1795.1 L 1566.4 1796.5 L 1575.6 1797.5 L 1584.8 1798.1 L 1594.0 1798.5 L 1603.2 1798.4 L 1612.4 1798.1 L 1621.6 1797.4 L 1630.8 1796.3 L 1640.0 1795.0" fill="none" stroke="#3d5a80" stroke-width="7" stroke-linecap="round" stroke-linejoin="round" stroke-opacity="0.9"/><path d="M -200.0 1780.5 L -190.8 1784.8 L -181.6 1788.8 L -172.4 1792.5 L -163.2 1795.9 L -154.0 1798.9 L -144.8 1801.7 L -135.6 1804.1 L -126.4 1806.1 L -117.2 1807.9 L -108.0 1809.3 L -98.8 1810.3 L -89.6 1811.1 L -80.4 1811.4 L -71.2 1811.5 L -62.0 1811.2 L -52.8 1810.5 L -43.6 1809.6 L -34.4 1808.2 L -25.2 1806.6 L -16.0 1804.6 L -6.8 1802.3 L 2.4 1799.6 L 11.6 1796.7 L 20.8 1793.4 L 30.0 1789.8 L 39.2 1785.8 L 48.4 1781.6 L 57.6 1777.0 L 66.8 1772.2 L 76.0 1767.1 L 85.2 1761.6 L 94.4 1755.9 L 103.6 1750.0 L 112.8 1743.7 L 122.0 1737.2 L 131.2 1730.5 L 140.4 1723.5 L 149.6 1716.2 L 158.8 1708.8 L 168.0 1701.1 L 177.2 1693.2 L 186.4 1685.1 L 195.6 1676.8 L 204.8 1668.4 L 214.0 1659.7 L 223.2 1651.0 L 232.4 1642.0 L 241.6 1633.0 L 250.8 1623.8 L 260.0 1614.4 L 269.2 1605.0 L 278.4 1595.5 L 287.6 1585.9 L 296.8 1576.3 L 306.0 1566.5 L 315.2 1556.8 L 324.4 1546.9 L 333.6 1537.1 L 342.8 1527.3 L 352.0 1517.4 L 361.2 1507.6 L 370.4 1497.8 L 379.6 1488.0 L 388.8 1478.3 L 398.0 1468.6 L 407.2 1459.0 L 416.4 1449.4 L 425.6 1440.0 L 434.8 1430.7 L 444.0 1421.5 L 453.2 1412.4 L 462.4 1403.4 L 471.6 1394.6 L 480.8 1386.0 L 490.0 1377.5 L 499.2 1369.2 L 508.4 1361.1 L 517.6 1353.1 L 526.8 1345.4 L 536.0 1337.9 L 545.2 1330.7 L 554.4 1323.6 L 563.6 1316.8 L 572.8 1310.3 L 582.0 1304.0 L 591.2 1298.0 L 600.4 1292.2 L 609.6 1286.8 L 618.8 1281.6 L 628.0 1276.7 L 637.2 1272.1 L 646.4 1267.8 L 655.6 1263.8 L 664.8 1260.2 L 674.0 1256.8 L 683.2 1253.8 L 692.4 1251.1 L 701.6 1248.7 L 710.8 1246.7 L 720.0 1245.0 L 729.2 1243.6 L 738.4 1242.6 L 747.6 1241.9 L 756.8 1241.5 L 766.0 1241.5 L 775.2 1241.9 L 784.4 1242.5 L 793.6 1243.5 L 802.8 1244.9 L 812.0 1246.6 L 821.2 1248.6 L 830.4 1250.9 L 839.6 1253.6 L 848.8 1256.6 L 858.0 1259.9 L 867.2 1263.6 L 876.4 1267.5 L 885.6 1271.8 L 894.8 1276.4 L 904.0 1281.3 L 913.2 1286.4 L 922.4 1291.9 L 931.6 1297.6 L 940.8 1303.6 L 950.0 1309.9 L 959.2 1316.4 L 968.4 1323.2 L 977.6 1330.2 L 986.8 1337.4 L 996.0 1344.9 L 1005.2 1352.6 L 1014.4 1360.5 L 1023.6 1368.6 L 1032.8 1376.9 L 1042.0 1385.4 L 1051.2 1394.0 L 1060.4 1402.8 L 1069.6 1411.8 L 1078.8 1420.9 L 1088.0 1430.1 L 1097.2 1439.4 L 1106.4 1448.8 L 1115.6 1458.4 L 1124.8 1468.0 L 1134.0 1477.6 L 1143.2 1487.4 L 1152.4 1497.1 L 1161.6 1506.9 L 1170.8 1516.8 L 1180.0 1526.6 L 1189.2 1536.5 L 1198.4 1546.3 L 1207.6 1556.1 L 1216.8 1565.9 L 1226.0 1575.6 L 1235.2 1585.3 L 1244.4 1594.9 L 1253.6 1604.4 L 1262.8 1613.8 L 1272.0 1623.2 L 1281.2 1632.4 L 1290.4 1641.4 L 1299.6 1650.4 L 1308.8 1659.2 L 1318.0 1667.8 L 1327.2 1676.3 L 1336.4 1684.6 L 1345.6 1692.7 L 1354.8 1700.6 L 1364.0 1708.3 L 1373.2 1715.7 L 1382.4 1723.0 L 1391.6 1730.0 L 1400.8 1736.8 L 1410.0 1743.3 L 1419.2 1749.6 L 1428.4 1755.6 L 1437.6 1761.3 L 1446.8 1766.7 L 1456.0 1771.9 L 1465.2 1776.7 L 1474.4 1781.3 L 1483.6 1785.6 L 1492.8 1789.5 L 1502.0 1793.1 L 1511.2 1796.5 L 1520.4 1799.5 L 1529.6 1802.1 L 1538.8 1804.5 L 1548.0 1806.5 L 1557.2 1808.1 L 1566.4 1809.5 L 1575.6 1810.5 L 1584.8 1811.1 L 1594.0 1811.5 L 1603.2 1811.4 L 1612.4 1811.1 L 1621.6 1810.4 L 1630.8 1809.3 L 1640.0 1808.0" fill="none" stroke="#e5a93c" stroke-width="7" stroke-linecap="round" stroke-linejoin="round" stroke-opacity="0.9"/><path d="M -200.0 1455.7 L -190.8 1447.5 L -181.6 1439.5 L -172.4 1431.7 L -163.2 1424.1 L -154.0 1416.7 L -144.8 1409.6 L -135.6 1402.7 L -126.4 1396.1 L -117.2 1389.9 L -108.0 1383.9 L -98.8 1378.3 L -89.6 1373.1 L -80.4 1368.3 L -71.2 1363.9 L -62.0 1359.9 L -52.8 1356.3 L -43.6 1353.1 L -34.4 1350.5 L -25.2 1348.2 L -16.0 1346.5 L -6.8 1345.2 L 2.4 1344.3 L 11.6 1344.0 L 20.8 1344.2 L 30.0 1344.8 L 39.2 1345.9 L 48.4 1347.4 L 57.6 1349.5 L 66.8 1352.0 L 76.0 1354.9 L 85.2 1358.3 L 94.4 1362.2 L 103.6 1366.4 L 112.8 1371.1 L 122.0 1376.1 L 131.2 1381.6 L 140.4 1387.4 L 149.6 1393.5 L 158.8 1399.9 L 168.0 1406.7 L 177.2 1413.7 L 186.4 1421.0 L 195.6 1428.5 L 204.8 1436.3 L 214.0 1444.2 L 223.2 1452.3 L 232.4 1460.5 L 241.6 1468.8 L 250.8 1477.2 L 260.0 1485.6 L 269.2 1494.1 L 278.4 1502.6 L 287.6 1511.0 L 296.8 1519.4 L 306.0 1527.8 L 315.2 1536.0 L 324.4 1544.0 L 333.6 1551.9 L 342.8 1559.7 L 352.0 1567.2 L 361.2 1574.5 L 370.4 1581.5 L 379.6 1588.2 L 388.8 1594.7 L 398.0 1600.8 L 407.2 1606.6 L 416.4 1612.0 L 425.6 1617.1 L 434.8 1621.7 L 444.0 1626.0 L 453.2 1629.8 L 462.4 1633.2 L 471.6 1636.1 L 480.8 1638.6 L 490.0 1640.6 L 499.2 1642.2 L 508.4 1643.3 L 517.6 1643.9 L 526.8 1644.0 L 536.0 1643.6 L 545.2 1642.8 L 554.4 1641.5 L 563.6 1639.7 L 572.8 1637.5 L 582.0 1634.8 L 591.2 1631.6 L 600.4 1628.0 L 609.6 1624.0 L 618.8 1619.6 L 628.0 1614.7 L 637.2 1609.5 L 646.4 1603.9 L 655.6 1598.0 L 664.8 1591.7 L 674.0 1585.1 L 683.2 1578.2 L 692.4 1571.1 L 701.6 1563.7 L 710.8 1556.0 L 720.0 1548.2 L 729.2 1540.2 L 738.4 1532.1 L 747.6 1523.8 L 756.8 1515.5 L 766.0 1507.1 L 775.2 1498.6 L 784.4 1490.1 L 793.6 1481.6 L 802.8 1473.2 L 812.0 1464.9 L 821.2 1456.6 L 830.4 1448.4 L 839.6 1440.4 L 848.8 1432.6 L 858.0 1425.0 L 867.2 1417.5 L 876.4 1410.4 L 885.6 1403.5 L 894.8 1396.9 L 904.0 1390.5 L 913.2 1384.6 L 922.4 1378.9 L 931.6 1373.7 L 940.8 1368.8 L 950.0 1364.4 L 959.2 1360.3 L 968.4 1356.7 L 977.6 1353.5 L 986.8 1350.7 L 996.0 1348.5 L 1005.2 1346.6 L 1014.4 1345.3 L 1023.6 1344.4 L 1032.8 1344.0 L 1042.0 1344.1 L 1051.2 1344.7 L 1060.4 1345.7 L 1069.6 1347.2 L 1078.8 1349.2 L 1088.0 1351.7 L 1097.2 1354.6 L 1106.4 1357.9 L 1115.6 1361.7 L 1124.8 1365.9 L 1134.0 1370.5 L 1143.2 1375.6 L 1152.4 1380.9 L 1161.6 1386.7 L 1170.8 1392.8 L 1180.0 1399.2 L 1189.2 1405.9 L 1198.4 1412.9 L 1207.6 1420.2 L 1216.8 1427.7 L 1226.0 1435.4 L 1235.2 1443.3 L 1244.4 1451.4 L 1253.6 1459.6 L 1262.8 1467.9 L 1272.0 1476.3 L 1281.2 1484.7 L 1290.4 1493.2 L 1299.6 1501.7 L 1308.8 1510.1 L 1318.0 1518.5 L 1327.2 1526.8 L 1336.4 1535.1 L 1345.6 1543.1 L 1354.8 1551.1 L 1364.0 1558.8 L 1373.2 1566.4 L 1382.4 1573.7 L 1391.6 1580.7 L 1400.8 1587.5 L 1410.0 1594.0 L 1419.2 1600.2 L 1428.4 1606.0 L 1437.6 1611.4 L 1446.8 1616.5 L 1456.0 1621.2 L 1465.2 1625.5 L 1474.4 1629.4 L 1483.6 1632.8 L 1492.8 1635.8 L 1502.0 1638.3 L 1511.2 1640.4 L 1520.4 1642.0 L 1529.6 1643.2 L 1538.8 1643.8 L 1548.0 1644.0 L 1557.2 1643.7 L 1566.4 1642.9 L 1575.6 1641.7 L 1584.8 1639.9 L 1594.0 1637.7 L 1603.2 1635.1 L 1612.4 1632.0 L 1621.6 1628.4 L 1630.8 1624.5 L 1640.0 1620.1" fill="none" stroke="#c84b31" stroke-width="6" stroke-linecap="round" stroke-linejoin="round" stroke-opacity="0.9"/><path d="M -200.0 1467.7 L -190.8 1459.5 L -181.6 1451.5 L -172.4 1443.7 L -163.2 1436.1 L -154.0 1428.7 L -144.8 1421.6 L -135.6 1414.7 L -126.4 1408.1 L -117.2 1401.9 L -108.0 1395.9 L -98.8 1390.3 L -89.6 1385.1 L -80.4 1380.3 L -71.2 1375.9 L -62.0 1371.9 L -52.8 1368.3 L -43.6 1365.1 L -34.4 1362.5 L -25.2 1360.2 L -16.0 1358.5 L -6.8 1357.2 L 2.4 1356.3 L 11.6 1356.0 L 20.8 1356.2 L 30.0 1356.8 L 39.2 1357.9 L 48.4 1359.4 L 57.6 1361.5 L 66.8 1364.0 L 76.0 1366.9 L 85.2 1370.3 L 94.4 1374.2 L 103.6 1378.4 L 112.8 1383.1 L 122.0 1388.1 L 131.2 1393.6 L 140.4 1399.4 L 149.6 1405.5 L 158.8 1411.9 L 168.0 1418.7 L 177.2 1425.7 L 186.4 1433.0 L 195.6 1440.5 L 204.8 1448.3 L 214.0 1456.2 L 223.2 1464.3 L 232.4 1472.5 L 241.6 1480.8 L 250.8 1489.2 L 260.0 1497.6 L 269.2 1506.1 L 278.4 1514.6 L 287.6 1523.0 L 296.8 1531.4 L 306.0 1539.8 L 315.2 1548.0 L 324.4 1556.0 L 333.6 1563.9 L 342.8 1571.7 L 352.0 1579.2 L 361.2 1586.5 L 370.4 1593.5 L 379.6 1600.2 L 388.8 1606.7 L 398.0 1612.8 L 407.2 1618.6 L 416.4 1624.0 L 425.6 1629.1 L 434.8 1633.7 L 444.0 1638.0 L 453.2 1641.8 L 462.4 1645.2 L 471.6 1648.1 L 480.8 1650.6 L 490.0 1652.6 L 499.2 1654.2 L 508.4 1655.3 L 517.6 1655.9 L 526.8 1656.0 L 536.0 1655.6 L 545.2 1654.8 L 554.4 1653.5 L 563.6 1651.7 L 572.8 1649.5 L 582.0 1646.8 L 591.2 1643.6 L 600.4 1640.0 L 609.6 1636.0 L 618.8 1631.6 L 628.0 1626.7 L 637.2 1621.5 L 646.4 1615.9 L 655.6 1610.0 L 664.8 1603.7 L 674.0 1597.1 L 683.2 1590.2 L 692.4 1583.1 L 701.6 1575.7 L 710.8 1568.0 L 720.0 1560.2 L 729.2 1552.2 L 738.4 1544.1 L 747.6 1535.8 L 756.8 1527.5 L 766.0 1519.1 L 775.2 1510.6 L 784.4 1502.1 L 793.6 1493.6 L 802.8 1485.2 L 812.0 1476.9 L 821.2 1468.6 L 830.4 1460.4 L 839.6 1452.4 L 848.8 1444.6 L 858.0 1437.0 L 867.2 1429.5 L 876.4 1422.4 L 885.6 1415.5 L 894.8 1408.9 L 904.0 1402.5 L 913.2 1396.6 L 922.4 1390.9 L 931.6 1385.7 L 940.8 1380.8 L 950.0 1376.4 L 959.2 1372.3 L 968.4 1368.7 L 977.6 1365.5 L 986.8 1362.7 L 996.0 1360.5 L 1005.2 1358.6 L 1014.4 1357.3 L 1023.6 1356.4 L 1032.8 1356.0 L 1042.0 1356.1 L 1051.2 1356.7 L 1060.4 1357.7 L 1069.6 1359.2 L 1078.8 1361.2 L 1088.0 1363.7 L 1097.2 1366.6 L 1106.4 1369.9 L 1115.6 1373.7 L 1124.8 1377.9 L 1134.0 1382.5 L 1143.2 1387.6 L 1152.4 1392.9 L 1161.6 1398.7 L 1170.8 1404.8 L 1180.0 1411.2 L 1189.2 1417.9 L 1198.4 1424.9 L 1207.6 1432.2 L 1216.8 1439.7 L 1226.0 1447.4 L 1235.2 1455.3 L 1244.4 1463.4 L 1253.6 1471.6 L 1262.8 1479.9 L 1272.0 1488.3 L 1281.2 1496.7 L 1290.4 1505.2 L 1299.6 1513.7 L 1308.8 1522.1 L 1318.0 1530.5 L 1327.2 1538.8 L 1336.4 1547.1 L 1345.6 1555.1 L 1354.8 1563.1 L 1364.0 1570.8 L 1373.2 1578.4 L 1382.4 1585.7 L 1391.6 1592.7 L 1400.8 1599.5 L 1410.0 1606.0 L 1419.2 1612.2 L 1428.4 1618.0 L 1437.6 1623.4 L 1446.8 1628.5 L 1456.0 1633.2 L 1465.2 1637.5 L 1474.4 1641.4 L 1483.6 1644.8 L 1492.8 1647.8 L 1502.0 1650.3 L 1511.2 1652.4 L 1520.4 1654.0 L 1529.6 1655.2 L 1538.8 1655.8 L 1548.0 1656.0 L 1557.2 1655.7 L 1566.4 1654.9 L 1575.6 1653.7 L 1584.8 1651.9 L 1594.0 1649.7 L 1603.2 1647.1 L 1612.4 1644.0 L 1621.6 1640.4 L 1630.8 1636.5 L 1640.0 1632.1" fill="none" stroke="#4a7c59" stroke-width="6" stroke-linecap="round" stroke-linejoin="round" stroke-opacity="0.9"/></g></svg>